<?xml version="1.0" encoding="UTF-8"?>
<svg version="1.1" xmlns="http://www.w3.org/2000/svg" width="512" height="512">
<path d="M0 0 C1.93649414 -0.04350586 1.93649414 -0.04350586 3.91210938 -0.08789062 C5.76739258 -0.10045898 5.76739258 -0.10045898 7.66015625 -0.11328125 C8.77140869 -0.12786377 9.88266113 -0.14244629 11.02758789 -0.1574707 C14.70407695 0.43630742 15.65707393 1.40892519 17.9375 4.3125 C18.43889666 7.13225794 18.43889666 7.13225794 18.44086456 10.4626236 C18.45129555 11.73259359 18.46172654 13.00256358 18.47247362 14.31101751 C18.46382509 15.72317574 18.45479845 17.13533169 18.44543457 18.54748535 C18.4500419 20.04539551 18.45639369 21.54330115 18.46434355 23.0411973 C18.48108332 27.16333125 18.47276959 31.28509607 18.46039867 35.40723157 C18.45136942 39.85038619 18.46530732 44.29347616 18.47631836 48.73661804 C18.49413095 57.4430841 18.49025143 66.14941244 18.4786678 74.85588396 C18.4696445 81.93004195 18.46840468 89.00416127 18.47276306 96.07832336 C18.47337599 97.08408264 18.47398893 98.08984192 18.47462043 99.12607875 C18.4758993 101.16908071 18.47719615 103.21208265 18.4785108 105.25508457 C18.48992462 124.42492119 18.47679031 143.59468137 18.45530933 162.76450545 C18.43743763 179.22308749 18.44054151 195.68155671 18.45898438 212.14013672 C18.48037693 231.24006494 18.48882591 250.33992611 18.47653532 269.43986464 C18.47526109 271.47546863 18.4740036 273.51107263 18.47276306 275.54667664 C18.47214596 276.54830586 18.47152886 277.54993509 18.47089306 278.58191672 C18.4674353 285.64986775 18.47327764 292.71777636 18.48268127 299.78572083 C18.49388471 308.39592861 18.49089616 317.00599048 18.4695583 325.61618149 C18.45902551 330.0116149 18.4549638 334.40680479 18.46815491 338.80223656 C18.48003879 342.82280944 18.47358307 346.84291215 18.4522447 350.86344212 C18.44776154 352.32098365 18.45008318 353.77856457 18.45974785 355.23608094 C18.4718459 357.21148575 18.45708945 359.18700119 18.44086456 361.1623764 C18.44021515 362.26139707 18.43956574 363.36041774 18.43889666 364.49274206 C17.81773854 367.98601533 16.69992492 369.15453672 13.9375 371.3125 C11.4140625 372.03857422 11.4140625 372.03857422 8.5625 372.3671875 C6.97634888 372.57142334 6.97634888 372.57142334 5.3581543 372.77978516 C4.22933838 372.91433105 3.10052246 373.04887695 1.9375 373.1875 C-22.26233429 376.53935166 -45.38630186 384.43035312 -65.0625 399.3125 C-65.95582031 399.98539062 -66.84914063 400.65828125 -67.76953125 401.3515625 C-96.9986352 424.35014214 -116.07645859 457.36675056 -121.0625 494.3125 C-121.24572609 496.35274723 -121.41421166 498.39441627 -121.5625 500.4375 C-121.87325426 504.64853725 -122.69717174 507.71720104 -125.0625 511.3125 C-127.78310174 512.67280087 -129.91907088 512.441765 -132.96652794 512.44672108 C-134.23251583 512.45117892 -135.49850373 512.45563676 -136.8028549 512.46022969 C-138.22089538 512.46014039 -139.63893586 512.45995052 -141.05697632 512.45967102 C-142.55315517 512.46296861 -144.04933312 512.46669395 -145.54550993 512.4708125 C-149.67204142 512.48085233 -153.79855836 512.48455246 -157.92510033 512.48720181 C-162.36963395 512.49109892 -166.814156 512.50067757 -171.25868225 512.50941467 C-181.99878044 512.52919452 -192.73887959 512.53924662 -203.47899145 512.54814246 C-208.53218455 512.55252234 -213.58537661 512.55788987 -218.63856888 512.56313133 C-235.42820455 512.58014413 -252.21783956 512.59463987 -269.00748253 512.60188007 C-273.36631649 512.60379008 -277.72515044 512.60571039 -282.08398438 512.60766602 C-283.16739729 512.60814976 -284.25081021 512.6086335 -285.36705382 512.6091319 C-302.93057609 512.61743806 -320.49403038 512.64278463 -338.05752294 512.67524669 C-356.07452466 512.70827654 -374.09149179 512.72632509 -392.10852396 512.72952431 C-402.23058894 512.73169305 -412.35255476 512.74049486 -422.4745903 512.76598549 C-431.09214494 512.7876368 -439.70957634 512.79577043 -448.3271551 512.78601871 C-452.72663979 512.78145794 -457.12586989 512.78346272 -461.52532005 512.80278015 C-465.54964872 512.82029847 -469.57353494 512.81950731 -473.59786756 512.80388286 C-475.05682482 512.80148943 -476.51581182 512.80591937 -477.97472338 512.81771151 C-479.95202491 512.83270888 -481.92947642 512.82083191 -483.90678978 512.80748463 C-485.00689459 512.80846144 -486.1069994 512.80943824 -487.24044073 512.81044465 C-490.73556596 512.19373935 -491.91483479 511.08586394 -494.0625 508.3125 C-494.56420898 505.79589844 -494.56420898 505.79589844 -494.55859375 502.921875 C-494.56157471 501.83680664 -494.56455566 500.75173828 -494.56762695 499.63378906 C-494.54531006 498.45526367 -494.52299316 497.27673828 -494.5 496.0625 C-494.48606201 494.82467773 -494.47212402 493.58685547 -494.45776367 492.31152344 C-492.61393935 396.24046832 -459.30650316 297.06406873 -399.0625 213.3125 C-398.57861816 212.65137207 -398.09473633 211.99024414 -397.59619141 211.30908203 C-388.01272518 198.2292442 -378.01736276 185.43189429 -367.046875 173.48046875 C-365.13692617 171.39381206 -363.28304653 169.26861046 -361.4375 167.125 C-358.68286766 163.95780752 -355.77758816 161.00360615 -352.78125 158.06640625 C-351.10828978 156.35922639 -349.59102674 154.58657167 -348.0625 152.75 C-342.84559694 146.70073712 -336.82107417 141.42964745 -330.94189453 136.0390625 C-329.22367214 134.46056565 -327.51433694 132.87320641 -325.80859375 131.28125 C-319.43569694 125.35104356 -312.87415016 119.73232449 -306.0625 114.3125 C-305.55025879 113.90064453 -305.03801758 113.48878906 -304.51025391 113.06445312 C-234.49597737 56.7822 -151.09552155 19.63696584 0 0 Z " fill="#FEAD46" transform="translate(494.0625,-0.3125)"/>
<path d="M0 0 C1.43139319 0.00723561 2.86278999 0.01379002 4.29418945 0.01965332 C7.74568255 0.03523583 11.19703548 0.0599014 14.6484375 0.08984375 C14.7418148 23.6201903 14.81238432 47.15050916 14.85568619 70.68100357 C14.87632502 81.60624631 14.90447087 92.53137404 14.95019531 103.45654297 C14.99002261 112.97720437 15.0158607 122.49778249 15.02479148 132.01852489 C15.03001319 137.06127527 15.04231352 142.10378736 15.07135773 147.14646149 C15.09846193 151.89064721 15.10689262 156.63449596 15.10086823 161.37875175 C15.1019707 163.12187721 15.10995432 164.86501367 15.1252594 166.60807228 C15.14510974 168.98492012 15.14039564 171.36048939 15.12945557 173.73736572 C15.14110693 174.429976 15.1527583 175.12258627 15.16476274 175.83618474 C15.12315782 179.17149063 14.84596212 180.83516145 12.77608871 183.50399399 C10.19356461 185.42888431 8.46199047 185.77708328 5.2734375 186.14453125 C4.21600342 186.28068848 3.15856934 186.4168457 2.0690918 186.55712891 C0.37586792 186.75894775 0.37586792 186.75894775 -1.3515625 186.96484375 C-25.55139679 190.31669541 -48.67536436 198.20769687 -68.3515625 213.08984375 C-69.24488281 213.76273438 -70.13820313 214.435625 -71.05859375 215.12890625 C-100.2876977 238.12748589 -119.36552109 271.14409431 -124.3515625 308.08984375 C-124.53478859 310.13009098 -124.70327416 312.17176002 -124.8515625 314.21484375 C-125.16231676 318.425881 -125.98623424 321.49454479 -128.3515625 325.08984375 C-131.28850016 326.55831258 -134.24477374 326.22352216 -137.46353149 326.21009827 C-138.20436332 326.21095269 -138.94519515 326.21180712 -139.70847642 326.21268743 C-142.20362437 326.21434128 -144.69870585 326.2088224 -147.19384766 326.20336914 C-148.9773712 326.20308722 -150.76089486 326.20324509 -152.54441833 326.20381165 C-157.39746101 326.20409944 -162.25047915 326.19820561 -167.1035161 326.19123769 C-172.17109078 326.18500116 -177.23866597 326.18440011 -182.3062439 326.18321228 C-191.90745147 326.18009985 -201.50864771 326.17188764 -211.10985029 326.16186279 C-222.038345 326.15069892 -232.96684025 326.14519051 -243.89533925 326.14016736 C-266.3807533 326.12970496 -288.86615726 326.11210722 -311.3515625 326.08984375 C-311.36997431 321.76864179 -311.3810527 317.44745007 -311.39086914 313.1262207 C-311.39613869 311.9103553 -311.40140823 310.6944899 -311.40683746 309.44178009 C-311.42188731 300.60153836 -311.00439381 292.04240624 -309.7890625 283.27734375 C-309.70264496 282.62649811 -309.61622742 281.97565247 -309.52719116 281.30508423 C-305.14031406 248.49855248 -295.38718805 217.01875117 -281.3515625 187.08984375 C-280.94292969 186.2174707 -280.53429687 185.34509766 -280.11328125 184.44628906 C-268.83884142 160.63574589 -254.52603656 138.0965995 -237.3515625 118.08984375 C-236.12566406 116.589375 -236.12566406 116.589375 -234.875 115.05859375 C-228.5735387 107.40917759 -221.77517994 100.30417858 -214.7890625 93.27734375 C-213.49597168 91.97047607 -213.49597168 91.97047607 -212.17675781 90.63720703 C-206.20980485 84.69849599 -199.92453903 79.34170092 -193.3515625 74.08984375 C-191.5781988 72.61371167 -189.80706366 71.13489446 -188.0390625 69.65234375 C-162.14685572 48.54416954 -132.36673341 32.30870286 -101.3515625 20.08984375 C-100.61147949 19.79062012 -99.87139648 19.49139648 -99.10888672 19.18310547 C-68.23587267 6.84898327 -33.16153659 -0.29668056 0 0 Z " fill="#48D8FE" transform="translate(497.3515625,185.91015625)"/>
<path d="M0 0 C1.93649414 -0.04350586 1.93649414 -0.04350586 3.91210938 -0.08789062 C5.76739258 -0.10045898 5.76739258 -0.10045898 7.66015625 -0.11328125 C8.77140869 -0.12786377 9.88266113 -0.14244629 11.02758789 -0.1574707 C14.69438076 0.43474142 15.65351331 1.42828569 17.9375 4.3125 C18.41851807 6.99542236 18.41851807 6.99542236 18.39160156 10.09082031 C18.39129944 11.2517218 18.39099731 12.41262329 18.39068604 13.60870361 C18.37004089 14.85673767 18.34939575 16.10477173 18.328125 17.390625 C18.31963531 19.31319122 18.31963531 19.31319122 18.31097412 21.27459717 C18.29573468 24.67463628 18.25646916 28.07398694 18.2121582 31.47375488 C18.17116799 34.94595019 18.15295521 38.41825724 18.1328125 41.890625 C18.089972 48.69819866 18.02174212 55.50531624 17.9375 62.3125 C16.32415771 62.37981323 16.32415771 62.37981323 14.67822266 62.44848633 C-5.428823 63.30235277 -25.45272588 64.17157629 -45.40478516 66.94335938 C-47.82379614 67.27934547 -50.24467425 67.58751447 -52.66796875 67.890625 C-89.49644497 72.80163326 -126.15230496 84.43658621 -160.0625 99.3125 C-161.16319824 99.79477051 -162.26389648 100.27704102 -163.39794922 100.77392578 C-207.6427257 120.3314462 -247.92646171 146.59975074 -283.69140625 179.16015625 C-285.22913754 180.55602106 -286.7780623 181.93969097 -288.33984375 183.30859375 C-293.83331293 188.1439435 -299.06697349 193.21161969 -304.25 198.375 C-304.91531738 199.0357251 -305.58063477 199.6964502 -306.26611328 200.37719727 C-310.73448147 204.85944927 -314.93532859 209.51639297 -319.0625 214.3125 C-319.98825424 215.3605505 -320.91525674 216.40750029 -321.84375 217.453125 C-330.5007412 227.30598159 -338.317611 237.73546135 -346.0625 248.3125 C-346.5884375 249.02245117 -347.114375 249.73240234 -347.65625 250.46386719 C-399.11771873 320.05076208 -427.55379079 406.24126016 -431.1875 492.375 C-431.27417595 494.32098873 -431.36141244 496.26695257 -431.44921875 498.21289062 C-431.66008407 502.91249974 -431.86344799 507.61237633 -432.0625 512.3125 C-439.55555014 512.40523004 -447.0485407 512.47628 -454.54203415 512.51974869 C-458.0217187 512.54061308 -461.50101033 512.56890821 -464.98046875 512.61425781 C-468.98180893 512.66608227 -472.98273719 512.68545453 -476.984375 512.703125 C-478.23240906 512.72377014 -479.48044312 512.74441528 -480.76629639 512.76568604 C-482.50764862 512.76613922 -482.50764862 512.76613922 -484.28417969 512.76660156 C-485.30566101 512.77548401 -486.32714233 512.78436646 -487.37957764 512.79351807 C-490.78251225 512.18340983 -491.95490094 510.99891428 -494.0625 508.3125 C-494.56420898 505.79589844 -494.56420898 505.79589844 -494.55859375 502.921875 C-494.56157471 501.83680664 -494.56455566 500.75173828 -494.56762695 499.63378906 C-494.54531006 498.45526367 -494.52299316 497.27673828 -494.5 496.0625 C-494.48606201 494.82467773 -494.47212402 493.58685547 -494.45776367 492.31152344 C-492.61393935 396.24046832 -459.30650316 297.06406873 -399.0625 213.3125 C-398.57861816 212.65137207 -398.09473633 211.99024414 -397.59619141 211.30908203 C-388.01272518 198.2292442 -378.01736276 185.43189429 -367.046875 173.48046875 C-365.13692617 171.39381206 -363.28304653 169.26861046 -361.4375 167.125 C-358.68286766 163.95780752 -355.77758816 161.00360615 -352.78125 158.06640625 C-351.10828978 156.35922639 -349.59102674 154.58657167 -348.0625 152.75 C-342.84559694 146.70073712 -336.82107417 141.42964745 -330.94189453 136.0390625 C-329.22367214 134.46056565 -327.51433694 132.87320641 -325.80859375 131.28125 C-319.43569694 125.35104356 -312.87415016 119.73232449 -306.0625 114.3125 C-305.55025879 113.90064453 -305.03801758 113.48878906 -304.51025391 113.06445312 C-234.49597737 56.7822 -151.09552155 19.63696584 0 0 Z " fill="#FC5A36" transform="translate(494.0625,-0.3125)"/>
<path d="M0 0 C0 20.46 0 40.92 0 62 C-4.5375 62.0825 -9.075 62.165 -13.75 62.25 C-58.69327195 63.52724263 -102.76550523 75.07625413 -143 95 C-144.39943848 95.67554932 -144.39943848 95.67554932 -145.82714844 96.36474609 C-170.64789981 108.37991425 -194.24628856 124.00566289 -214.5234375 142.734375 C-216.56465797 144.60173758 -218.63532478 146.41308203 -220.73046875 148.21875 C-232.10128402 158.146326 -242.79876594 169.03134497 -252 181 C-252.79664063 181.96808594 -253.59328125 182.93617188 -254.4140625 183.93359375 C-267.77339251 200.23548539 -279.43528311 218.22481499 -289 237 C-289.4738916 237.9286084 -289.9477832 238.8572168 -290.43603516 239.81396484 C-300.67379399 260.07585352 -309.31958581 280.98952748 -315 303 C-315.2381543 303.90282715 -315.47630859 304.8056543 -315.72167969 305.73583984 C-319.08852928 318.68476899 -321.60478627 331.67427708 -323.3125 344.9375 C-323.47177979 346.13576416 -323.63105957 347.33402832 -323.79516602 348.56860352 C-325.37044682 361.75322647 -325.50374661 374.60115847 -326 388 C-346.46 388 -366.92 388 -388 388 C-388 355.49967693 -388 355.49967693 -386.3125 342.8125 C-386.13252896 341.37967426 -385.95284842 339.946812 -385.7734375 338.51391602 C-384.14865221 325.88340428 -381.82611045 313.41629058 -379 301 C-378.71979004 299.7222168 -378.43958008 298.44443359 -378.15087891 297.12792969 C-375.81655372 286.66324644 -372.80359406 276.52973224 -369.375 266.375 C-369.11432739 265.59684937 -368.85365479 264.81869873 -368.58508301 264.01696777 C-364.10288317 250.67940764 -359.0690975 237.7059408 -353 225 C-352.6498584 224.26491211 -352.2997168 223.52982422 -351.93896484 222.77246094 C-350.02340813 218.78744339 -348.039941 214.84280153 -345.99755859 210.92138672 C-344.96058625 208.9240856 -343.94298687 206.91758716 -342.92578125 204.91015625 C-331.31357876 182.22891969 -316.74575864 161.34329111 -300.47363281 141.78222656 C-299.12024266 140.1454227 -297.78599715 138.49570447 -296.4609375 136.8359375 C-292.49687869 131.89108063 -288.42266639 127.28070701 -283.87109375 122.87109375 C-282.10992458 121.10992458 -280.52822374 119.28953519 -278.9375 117.375 C-273.71396907 111.30084821 -267.66022674 106.01379705 -261.75830078 100.61425781 C-260.29623413 99.27196613 -258.8475392 97.91512713 -257.40234375 96.5546875 C-250.39460891 90.03977792 -242.78615613 84.326676 -235.13427734 78.59912109 C-233.16289597 77.12205086 -231.20007984 75.63428674 -229.23828125 74.14453125 C-209.86311351 59.5517755 -188.76706829 47.52686422 -166.96679688 36.95898438 C-165.02747843 36.01339812 -163.09967401 35.04693735 -161.171875 34.078125 C-141.4070579 24.29638198 -120.41013607 17.16632195 -99 12 C-97.83484863 11.71527832 -96.66969727 11.43055664 -95.46923828 11.13720703 C-63.41183558 3.37663895 -33.10986162 0 0 0 Z " fill="#FEE177" transform="translate(512,124)"/>
<path d="M0 0 C0 20.13 0 40.26 0 61 C-16.9375 62.3125 -16.9375 62.3125 -22.16381836 62.7043457 C-65.53172721 66.10825319 -108.92616225 80.43703972 -145 105 C-145.62342285 105.42120117 -146.2468457 105.84240234 -146.88916016 106.27636719 C-157.16779937 113.25176485 -166.75234012 120.71353629 -176 129 C-177.0258278 129.90258688 -178.05186449 130.8049364 -179.078125 131.70703125 C-211.4890513 160.49097035 -236.10441172 199.04685317 -250 240 C-250.41507812 241.17175781 -250.83015625 242.34351563 -251.2578125 243.55078125 C-260.2127537 270.2184835 -263.07401932 298.07328016 -265 326 C-285.13 326 -305.26 326 -326 326 C-326 294.45636966 -326 294.45636966 -324.4375 283.1875 C-324.35108246 282.53665436 -324.26466492 281.88580872 -324.17562866 281.21524048 C-319.78875156 248.40870873 -310.03562555 216.92890742 -296 187 C-295.59136719 186.12762695 -295.18273437 185.25525391 -294.76171875 184.35644531 C-283.48727892 160.54590214 -269.17447406 138.00675575 -252 118 C-250.77410156 116.49953125 -250.77410156 116.49953125 -249.5234375 114.96875 C-243.2219762 107.31933384 -236.42361744 100.21433483 -229.4375 93.1875 C-228.14440918 91.88063232 -228.14440918 91.88063232 -226.82519531 90.54736328 C-220.85824235 84.60865224 -214.57297653 79.25185717 -208 74 C-206.2266363 72.52386792 -204.45550116 71.04505071 -202.6875 69.5625 C-176.79529322 48.45432579 -147.01517091 32.21885911 -116 20 C-115.25991699 19.70077637 -114.51983398 19.40155273 -113.75732422 19.09326172 C-77.56738844 4.63496848 -38.69108014 -0.70347418 0 0 Z " fill="#47BF70" transform="translate(512,186)"/>
<path d="M0 0 C0.98544296 0.00133942 1.97088593 0.00267883 2.9861908 0.00405884 C3.73461746 0.00578094 4.48304413 0.00750305 5.25415039 0.00927734 C5.34688043 7.50232749 5.41793039 14.99531805 5.46139908 22.48881149 C5.48226347 25.96849604 5.5105586 29.44778768 5.5559082 32.92724609 C5.60773266 36.92858628 5.62710492 40.92951453 5.64477539 44.93115234 C5.66542053 46.1791864 5.68606567 47.42722046 5.70733643 48.71307373 C5.70763855 49.87397522 5.70794067 51.03487671 5.70825195 52.23095703 C5.7171344 53.25243835 5.72601685 54.27391968 5.73516846 55.32635498 C5.12489189 58.73022849 3.93208571 59.89111625 1.25415039 62.00927734 C-1.26928711 62.73535156 -1.26928711 62.73535156 -4.12084961 63.06396484 C-5.17828369 63.20012207 -6.23571777 63.3362793 -7.32519531 63.4765625 C-8.45401123 63.6111084 -9.58282715 63.7456543 -10.74584961 63.88427734 C-34.9456839 67.236129 -58.06965146 75.12713047 -77.74584961 90.00927734 C-78.63916992 90.68216797 -79.53249023 91.35505859 -80.45288086 92.04833984 C-109.68198481 115.04691949 -128.7598082 148.0635279 -133.74584961 185.00927734 C-133.9290757 187.04952457 -134.09756127 189.09119361 -134.24584961 191.13427734 C-134.55660386 195.3453146 -135.38052134 198.41397838 -137.74584961 202.00927734 C-140.38300057 203.32785282 -142.34417601 203.12919439 -145.29711914 203.12280273 C-146.45817169 203.1227272 -147.61922424 203.12265167 -148.81546021 203.12257385 C-150.07381683 203.11741257 -151.33217346 203.11225128 -152.62866211 203.10693359 C-153.91320282 203.10551865 -155.19774353 203.1041037 -156.52120972 203.10264587 C-159.93741803 203.09882645 -163.35358387 203.08900108 -166.76977539 203.07794189 C-170.25528387 203.06771541 -173.7407992 203.0631456 -177.22631836 203.05810547 C-184.06617956 203.0473783 -190.90601255 203.03030876 -197.74584961 203.00927734 C-197.86855725 194.08343254 -197.76686975 185.37613743 -196.62084961 176.50927734 C-196.49105713 175.49736328 -196.36126465 174.48544922 -196.22753906 173.44287109 C-190.62179444 133.16386468 -172.0933008 95.29261176 -144.28881836 65.76318359 C-142.49821664 63.8240527 -140.80198411 61.89341968 -139.13256836 59.85693359 C-135.98648688 56.10326191 -132.51082336 53.12651368 -128.74584961 50.00927734 C-128.22200684 49.57309082 -127.69816406 49.1369043 -127.15844727 48.6875 C-99.38187733 25.6587947 -68.26274536 10.1238103 -32.74584961 3.00927734 C-31.60889648 2.77595703 -30.47194336 2.54263672 -29.30053711 2.30224609 C-19.63841829 0.51153341 -9.81363852 -0.01732811 0 0 Z " fill="#72A7E6" transform="translate(506.745849609375,308.99072265625)"/>
<path d="M0 0 C1.47483353 0.00248497 1.47483353 0.00248497 2.97946167 0.00502014 C3.72503326 0.00715012 4.47060486 0.00928009 5.23876953 0.01147461 C5.33149958 7.50452475 5.40254953 14.99751531 5.44601822 22.49100876 C5.46688261 25.97069331 5.49517774 29.44998494 5.54052734 32.92944336 C5.5923518 36.93078354 5.61172406 40.9317118 5.62939453 44.93334961 C5.65003967 46.18138367 5.67068481 47.42941772 5.69195557 48.715271 C5.69225769 49.87617249 5.69255981 51.03707397 5.69287109 52.2331543 C5.70175354 53.25463562 5.71063599 54.27611694 5.7197876 55.32855225 C5.10832759 58.73902649 3.92870863 59.89503176 1.23876953 62.01147461 C-1.58618164 62.83276367 -1.58618164 62.83276367 -4.80419922 63.27709961 C-6.53766602 63.5284668 -6.53766602 63.5284668 -8.30615234 63.78491211 C-10.10922852 64.02081055 -10.10922852 64.02081055 -11.94873047 64.26147461 C-13.16238281 64.43420898 -14.37603516 64.60694336 -15.62646484 64.78491211 C-24.32435051 66.01147461 -24.32435051 66.01147461 -25.76123047 66.01147461 C-25.76123047 44.89147461 -25.76123047 23.77147461 -25.76123047 2.01147461 C-21.62178683 1.18358588 -17.83051225 0.72479899 -13.63623047 0.44897461 C-11.80705078 0.32329102 -11.80705078 0.32329102 -9.94091797 0.19506836 C-6.62467288 0.01418179 -3.32097018 -0.007274 0 0 Z " fill="#487ED2" transform="translate(506.76123046875,308.988525390625)"/>
<path d="M0 0 C0 20.46 0 40.92 0 62 C-10.23 62.66 -20.46 63.32 -31 64 C-31 43.54 -31 23.08 -31 2 C-16 0 -16 0 0 0 Z " fill="#12B4FE" transform="translate(512,247)"/>
<path d="M0 0 C0 20.46 0 40.92 0 62 C-10.23 62 -20.46 62 -31 62 C-31 41.87 -31 21.74 -31 1 C-20.7411285 -0.28235894 -10.33870828 0 0 0 Z " fill="#FEC75E" transform="translate(512,124)"/>
<path d="M0 0 C0 20.46 0 40.92 0 62 C-10.23 62 -20.46 62 -31 62 C-31 41.87 -31 21.74 -31 1 C-20.7411285 -0.28235894 -10.33870828 0 0 0 Z " fill="#FD843F" transform="translate(512,62)"/>
<path d="M0 0 C8.91 0 17.82 0 27 0 C31 4 31 4 31.48101807 6.68292236 C31.47213562 7.70440369 31.46325317 8.72588501 31.45410156 9.77832031 C31.45364838 11.51967255 31.45364838 11.51967255 31.45318604 13.29620361 C31.43254089 14.54423767 31.41189575 15.79227173 31.390625 17.078125 C31.38496521 18.35983582 31.37930542 19.64154663 31.37347412 20.96209717 C31.35823468 24.36213628 31.31896916 27.76148694 31.2746582 31.16125488 C31.23366802 34.63344848 31.21523575 38.10575713 31.1953125 41.578125 C31.1545954 48.38602378 31.07630347 55.19203452 31 62 C20.77 62 10.54 62 0 62 C0 41.54 0 21.08 0 0 Z " fill="#DB3916" transform="translate(481,0)"/>
<path d="M0 0 C10.23 0 20.46 0 31 0 C31 20.13 31 40.26 31 61 C20.77 61.66 10.54 62.32 0 63 C0 42.21 0 21.42 0 0 Z " fill="#2FA157" transform="translate(481,186)"/>
</svg>
